<svg xmlns="http://www.w3.org/2000/svg" xmlns:xlink="http://www.w3.org/1999/xlink"><symbol id="sprite-arrow-45" viewBox="0 0 51 51"><rect y="47.314" width="50.7325" height="3.38217"/><rect x="47.3135" width="3.38217" height="50.7325"/><rect x="4.06982" y="6.61377" width="3.38217" height="62.5559" transform="rotate(-45 4.06982 6.61377)"/></symbol><use xlink:href="#sprite-arrow-45" width="51" height="51" y="0"/><view id="sprite-arrow-45-view" viewBox="0 0 51 51"/><symbol id="sprite-arrow" viewBox="0 0 24 24"><path d="m16.172 11-5.364-5.364 1.414-1.414L20 12l-7.778 7.778-1.414-1.414L16.172 13H4v-2z"/></symbol><use xlink:href="#sprite-arrow" width="24" height="24" y="51"/><view id="sprite-arrow-view" viewBox="0 51 24 24"/><symbol id="sprite-quote" viewBox="0 0 44 29"><path d="M0 17.568c0 6.816 3.84 10.944 9.696 10.944 5.184 0 8.64-3.168 8.64-7.68 0-3.936-3.072-7.104-7.296-7.104-.672 0-1.44.096-2.208.288C9.984 9.6 14.304 7.392 19.968 8.16V1.44C9.312 0 0 7.488 0 17.568m23.232 0c0 6.816 3.84 10.944 9.696 10.944 5.28 0 8.64-3.168 8.64-7.68 0-3.936-3.072-7.104-7.296-7.104-.672 0-1.44.096-2.208.288C33.216 9.6 37.536 7.392 43.2 8.16V1.44C32.544 0 23.232 7.488 23.232 17.568"/></symbol><use xlink:href="#sprite-quote" width="44" height="29" y="75"/><view id="sprite-quote-view" viewBox="0 75 44 29"/><symbol id="sprite-s-apple" viewBox="0 0 24 24"><path d="M11.624 7.222c-.876 0-2.232-.996-3.66-.96-1.884.024-3.612 1.092-4.584 2.784-1.956 3.396-.504 8.412 1.404 11.172.936 1.344 2.04 2.856 3.504 2.808 1.404-.06 1.932-.912 3.636-.912 1.692 0 2.172.912 3.66.876 1.512-.024 2.472-1.368 3.396-2.724 1.068-1.56 1.512-3.072 1.536-3.156-.036-.012-2.94-1.128-2.976-4.488-.024-2.808 2.292-4.152 2.4-4.212-1.32-1.932-3.348-2.148-4.056-2.196-1.848-.144-3.396 1.008-4.26 1.008m3.12-2.832c.78-.936 1.296-2.244 1.152-3.54-1.116.048-2.46.744-3.264 1.68-.72.828-1.344 2.16-1.176 3.432 1.236.096 2.508-.636 3.288-1.572"/></symbol><use xlink:href="#sprite-s-apple" width="24" height="24" y="104"/><view id="sprite-s-apple-view" viewBox="0 104 24 24"/><symbol id="sprite-s-inst" viewBox="0 0 24 24"><path d="M12 9a3 3 0 1 0 0 6 3 3 0 0 0 0-6m0-2a5 5 0 1 1 0 10 5 5 0 0 1 0-10m6.5-.25a1.25 1.25 0 1 1-2.5 0 1.25 1.25 0 0 1 2.5 0M12 4c-2.474 0-2.878.007-4.029.058-.784.037-1.31.142-1.798.332-.408.15-.778.39-1.08.703a2.9 2.9 0 0 0-.704 1.08c-.19.49-.295 1.015-.331 1.798C4.006 9.075 4 9.461 4 12c0 2.474.007 2.878.058 4.029.037.783.142 1.31.331 1.797.17.435.37.748.702 1.08.337.336.65.537 1.08.703.494.191 1.02.297 1.8.333C9.075 19.994 9.461 20 12 20c2.474 0 2.878-.007 4.029-.058.782-.037 1.309-.142 1.797-.331a2.9 2.9 0 0 0 1.08-.702c.337-.337.538-.65.704-1.08.19-.493.296-1.02.332-1.8.052-1.104.058-1.49.058-4.029 0-2.474-.007-2.878-.058-4.029-.037-.782-.142-1.31-.332-1.798a2.9 2.9 0 0 0-.703-1.08 2.9 2.9 0 0 0-1.08-.704c-.49-.19-1.016-.295-1.798-.331C14.925 4.006 14.539 4 12 4m0-2c2.717 0 3.056.01 4.122.06s1.79.217 2.428.465c.66.254 1.216.598 1.772 1.153.509.5.902 1.105 1.153 1.772.247.637.415 1.363.465 2.428.047 1.066.06 1.405.06 4.122s-.01 3.056-.06 4.122-.218 1.79-.465 2.428a4.9 4.9 0 0 1-1.153 1.772c-.5.508-1.105.902-1.772 1.153-.637.247-1.363.415-2.428.465-1.066.047-1.405.06-4.122.06s-3.056-.01-4.122-.06-1.79-.218-2.428-.465a4.9 4.9 0 0 1-1.772-1.153 4.9 4.9 0 0 1-1.153-1.772c-.248-.637-.415-1.363-.465-2.428C2.013 15.056 2 14.717 2 12s.01-3.056.06-4.122.217-1.79.465-2.428a4.9 4.9 0 0 1 1.153-1.772A4.9 4.9 0 0 1 5.45 2.525c.638-.248 1.362-.415 2.428-.465C8.944 2.013 9.283 2 12 2"/></symbol><use xlink:href="#sprite-s-inst" width="24" height="24" y="128"/><view id="sprite-s-inst-view" viewBox="0 128 24 24"/><symbol id="sprite-s-rss" viewBox="0 0 24 24"><path d="M3 3c9.941 0 18 8.059 18 18h-3c0-8.284-6.716-15-15-15zm0 7c6.075 0 11 4.925 11 11h-3a8 8 0 0 0-8-8zm0 7a4 4 0 0 1 4 4H3z"/></symbol><use xlink:href="#sprite-s-rss" width="24" height="24" y="152"/><view id="sprite-s-rss-view" viewBox="0 152 24 24"/><symbol id="sprite-s-soundcloud" viewBox="0 0 24 24"><g><path d="M4 10a1 1 0 0 1 1 1v7a1 1 0 1 1-2 0v-7a1 1 0 0 1 1-1m3 1a1 1 0 0 1 1 1v6a1 1 0 1 1-2 0v-6a1 1 0 0 1 1-1m3-4a1 1 0 0 1 1 1v10a1 1 0 0 1-2 0V8a1 1 0 0 1 1-1m5-1a6 6 0 0 1 5.996 5.775l.003.26a3.5 3.5 0 0 1-.307 6.96L20.5 19h-3.501a1 1 0 0 1-.117-1.993L17 17h3.447l.138-.002a1.5 1.5 0 0 0 .267-2.957l-.135-.026-1.77-.252.053-1.787-.004-.176A4 4 0 0 0 15.2 8.005L15 8q-.402 0-.788.077L14 8.126V18a1 1 0 0 1-.883.993L13 19a1 1 0 0 1-1-1l-.001-11.197A6 6 0 0 1 15 6M1 12a1 1 0 0 1 1 1v4a1 1 0 1 1-2 0v-4a1 1 0 0 1 1-1"/></g></symbol><use xlink:href="#sprite-s-soundcloud" width="24" height="24" y="176"/><view id="sprite-s-soundcloud-view" viewBox="0 176 24 24"/><symbol id="sprite-s-spotify" viewBox="0 0 24 24"><path d="M12 2C6.5 2 2 6.5 2 12s4.5 10 10 10 10-4.5 10-10S17.55 2 12 2m3.75 14.65c-2.35-1.45-5.3-1.75-8.8-.95-.35.1-.65-.15-.75-.45-.1-.35.15-.65.45-.75 3.8-.85 7.1-.5 9.7 1.1.35.15.4.55.25.85-.2.3-.55.4-.85.2m1-2.7c-2.7-1.65-6.8-2.15-9.95-1.15-.4.1-.85-.1-.95-.5s.1-.85.5-.95c3.65-1.1 8.15-.55 11.25 1.35.3.15.45.65.2 1s-.7.5-1.05.25M6.3 9.75c-.5.15-1-.15-1.15-.6-.15-.5.15-1 .6-1.15 3.55-1.05 9.4-.85 13.1 1.35.45.25.6.85.35 1.3-.25.35-.85.5-1.3.25C14.7 9 9.35 8.8 6.3 9.75"/></symbol><use xlink:href="#sprite-s-spotify" width="24" height="24" y="200"/><view id="sprite-s-spotify-view" viewBox="0 200 24 24"/><symbol id="sprite-s-x" viewBox="0 0 24 24"><path d="M22.162 5.656a8.4 8.4 0 0 1-2.402.658A4.2 4.2 0 0 0 21.6 4c-.82.488-1.719.83-2.656 1.015a4.182 4.182 0 0 0-7.126 3.814 11.87 11.87 0 0 1-8.62-4.37 4.17 4.17 0 0 0-.566 2.103c0 1.45.738 2.731 1.86 3.481a4.2 4.2 0 0 1-1.894-.523v.052a4.185 4.185 0 0 0 3.355 4.101 4.2 4.2 0 0 1-1.89.072A4.185 4.185 0 0 0 7.97 16.65a8.4 8.4 0 0 1-6.191 1.732 11.83 11.83 0 0 0 6.41 1.88c7.693 0 11.9-6.373 11.9-11.9q0-.272-.013-.54a8.5 8.5 0 0 0 2.087-2.165z"/></symbol><use xlink:href="#sprite-s-x" width="24" height="24" y="224"/><view id="sprite-s-x-view" viewBox="0 224 24 24"/><symbol id="sprite-s-youtube" viewBox="0 0 24 24"><path d="M21.543 6.498C22 8.28 22 12 22 12s0 3.72-.457 5.502c-.254.985-.997 1.76-1.938 2.022C17.896 20 12 20 12 20s-5.893 0-7.605-.476c-.945-.266-1.687-1.04-1.938-2.022C2 15.72 2 12 2 12s0-3.72.457-5.502c.254-.985.997-1.76 1.938-2.022C6.107 4 12 4 12 4s5.896 0 7.605.476c.945.266 1.687 1.04 1.938 2.022M10 15.5l6-3.5-6-3.5z"/></symbol><use xlink:href="#sprite-s-youtube" width="24" height="24" y="248"/><view id="sprite-s-youtube-view" viewBox="0 248 24 24"/><symbol id="sprite-vector-arrow" viewBox="0 0 16 16"><path d="M12.172 6.778 6.808 1.414 8.222 0 16 7.778l-7.778 7.778-1.414-1.414 5.364-5.364H0v-2z"/></symbol><use xlink:href="#sprite-vector-arrow" width="16" height="16" y="272"/><view id="sprite-vector-arrow-view" viewBox="0 272 16 16"/></svg>